<?xml version="1.0" encoding="utf-8"?>
<!-- Generator: Adobe Illustrator 16.0.0, SVG Export Plug-In . SVG Version: 6.00 Build 0)  -->
<!DOCTYPE svg PUBLIC "-//W3C//DTD SVG 1.1//EN" "http://www.w3.org/Graphics/SVG/1.1/DTD/svg11.dtd">
<svg version="1.1" xmlns="http://www.w3.org/2000/svg" xmlns:xlink="http://www.w3.org/1999/xlink" x="0px" y="0px" width="756px"
	 height="548px" viewBox="0 0 756 548" enable-background="new 0 0 756 548" xml:space="preserve">
<g id="spain-map">
	<path fill-rule="evenodd" clip-rule="evenodd" fill="#EAEAEA" d="M129.115,133.092c-1.833-8.561,0.055-15.28,7.717-19.769
		c-2.017,0.397-4.033,0.796-6.05,1.192c-0.299-0.381-0.597-0.762-0.896-1.143c2.166-2.111,4.332-4.22,6.499-6.33
		c-4.395,2.014-5.682-1.831-8.134-4.393c1.61-0.763,3.101-1.469,4.573-2.165c-0.615-0.627-1.229-1.251-1.844-1.876
		c0.638-0.384,1.383-0.662,1.889-1.176c0.679-0.69,1.175-1.562,1.749-2.357c-0.744,0.205-1.538,0.692-2.222,0.569
		c-3.834-0.691-3.91,4.346-7.062,4.612c-0.637-1.137-1.245-2.223-2.016-3.596c1.508-2.827,3.17-5.943,5.117-9.595
		c-1.556,0.496-3.124,0.996-5.338,1.704c-0.389-2.053-0.707-4.443-1.344-6.747c-0.264-0.959-1.052-2.081-1.899-2.46
		c-0.538-0.24-1.627,0.754-3.202,1.581c1.253-4.138-0.313-8.617,3.863-11.606c0.271-0.192,0.175-0.838,0.415-1.145
		c0.863-1.107,1.821-3.089,2.7-3.065c3.189,0.083,5.617,0.204,6.543-3.936c0.292-1.308,3.441-1.976,5.334-2.964
		c1.525,2.508,3.747,3.552,6.828,2.287c2.335-0.96,4.667-1.967,7.081-2.676c0.991-0.29,2.195,0.146,3.535,0.274
		c1.066-3.553,2.884-0.693,5.376,1.253c-1.072-4.005-7.115-5.783-3.017-10.065c2.191-1.329,4.635-2.747,7.011-4.266
		c2.483-1.587,4.88-3.312,7.363-4.9c2.091-1.337,2.246-1.221,3.112,2.045c2.08-1.032,4.085-2.03,6.394-3.178
		c0.763,1.267,1.68,2.788,2.596,4.31c2.736-1.934,6.921-0.928,8.989,3.091c2.935,5.7,8.059,4.962,12.879,5.354
		c4.861,0.394,9.737,0.632,14.611,0.834c1.527,0.063,3.068-0.301,4.604-0.316c5.483-0.062,10.97,0.056,16.446-0.161
		c1.333-0.052,2.799-0.902,3.899-1.771c1.892-1.492,3.379-1.648,4.64,0.592c1.436,2.549,3.598,3.344,6.465,3.373
		c4.883,0.05,9.729-0.092,13.942,3.599c1.568,1.372,4.752,0.878,7.189,1.289c2.319,0.39,4.787,0.468,6.911,1.351
		c6.379,2.655,13.094,2.739,19.711,2.451c4.046-0.176,8.037-1.884,12.029-2.996c2.339-0.652,4.517-2.455,7.086-0.327
		c0.436,0.359,1.979-0.186,2.728-0.713c3.762-2.646,6.492,0.315,9.501,1.637c0.947,0.417,1.671,1.381,2.629,1.723
		c3.805,1.356,7.66,2.566,11.466,3.819c2.72-5.044,6.92-6.273,12.021-3.908c4.16,1.929,8.306,4.099,12.693,5.277
		c6.093,1.636,12.234,0.641,17.659-2.606c2.155-1.291,3.391-1.589,4.85,0.521c2.04,2.945,4.854,3.651,8.293,3.008
		c4.451-0.835,6.495,1.804,4.865,6.086c-0.325,0.854-0.637,1.74-1.128,2.497c-1.65,2.551-0.563,3.49,2.108,3.767
		c0.583-1.256,1.128-2.436,1.792-3.87c2.919,4.361,14.759,8.052,20.047,6.877c2.578,2.652,4.577,5.793,7.437,7.283
		c2.036,1.062,5.392,0.414,7.865-0.384c3.77-1.213,7.999-0.383,9.646,3.194c1.683,3.657,4.129,3.682,7.035,2.129
		c2.645-1.415,5.13-1.861,7.753-0.103c0.421,0.281,1.104,0.653,1.444,0.498c4.488-2.056,9.35-0.006,14.125-1.427
		c-0.175-0.654-0.451-1.341-0.526-2.048c-0.144-1.364-0.17-2.741-0.246-4.113c1.286,0.018,2.603-0.146,3.85,0.084
		c3.529,0.649,7.424,0.742,10.427,2.405c3.139,1.737,5.89,2.718,9.521,2.733c1.545,0.007,3.396,3.024,4.497,5.012
		c0.675,1.219,0.175,3.079,0.225,4.649c0.123,3.882,2.069,5.26,5.312,3.157c3.982-2.579,7.843-2.272,11.932-0.865
		c0.562,0.192,1.323,0.468,1.537,0.92c1.933,4.109,4.545,3.615,7.626,1.356c2.858-2.094,5.819-1.437,8.921-0.324
		c3.245,1.165,6.643,1.908,8.659,2.47c6.462-5.561,11.737-9.531,19.561-5.315c0.427,1.886,0.518,1.964,6.122,4.653
		c-0.406,3.577-1.772,5.824-5.952,3.721c-1.125,2.901-1.242,4.89,1.571,6.913c4.09,2.944,3.571,10.638-0.411,13.753
		c-1.501,1.174-2.506,3.019-4.068,4.062c-5.54,3.707-11.341,7.029-16.816,10.821c-5.523,3.828-12.338,6.391-14.412,13.939
		c-0.257,0.936-1.917,1.776-3.086,2.125c-6.346,1.894-12.849,3.318-19.086,5.502c-4.661,1.633-9.001,4.176-13.493,6.296
		c-0.308,0.145-0.703,0.224-1.036,0.179c-3.806-0.522-6.404,1.388-8.57,4.192c-2.441,3.158-4.878,6.318-6.916,8.96
		c2.083,1.534,3.988,2.937,6.461,4.756c-3.507,2.476-5.406,6.502-10.233,6.838c-1.148,0.079-2.666,1.007-3.251,1.995
		c-3.165,5.338-5.869,10.957-9.177,16.199c-2.204,3.492-5.152,6.515-7.762,9.751c-0.248,0.305-0.503,0.614-0.681,0.96
		c-4.259,8.238-8.594,16.438-12.716,24.744c-1.958,3.946-0.668,7.882,0.703,11.772c0.914,2.603,1.472,5.331,2.25,7.983
		c1.882,6.432,4.314,12.201,11.785,14.312c2.414,0.684,4.276,3.312,7.247,5.757c-4.208,2.495-7.35,4.345-10.473,6.228
		c-0.437,0.264-1.101,0.7-1.099,1.055c0.017,4.531-3.934,3.848-6.469,4.979c-3.308,1.479-7.015,2.462-7.69,6.895
		c-0.057,0.375-0.524,0.922-0.87,0.979c-3.667,0.616-3.408,3.183-3.264,5.941c0.046,0.887-0.861,1.895-1.489,2.728
		c-1.044,1.384-3.027,2.589-3.174,4.017c-0.354,3.433-0.876,6.488-3.167,9.332c-3.207,3.981-0.938,8.488-0.059,12.601
		c0.57,2.663,0.486,3.804-2.334,4.302c-2.95,0.52-5.55,2.94-8.967,1.012c-0.86-0.484-2.699,0.783-4.099,1.223
		c-0.659,0.206-1.439,0.664-1.992,0.481c-5.601-1.864-9.563-0.358-12.418,4.758c-0.273,0.491-1.002,0.718-1.488,1.108
		c-2.573,2.062-5.163,4.109-7.697,6.22c-4.881,4.07-4.461,10.635-7.309,15.651c-1.657,2.92-3.636,5.655-5.473,8.47
		c-0.551,0.841-1.09,1.687-1.673,2.501c-2.459,3.425-4.982,3.463-7.472,0.184c-1.589-2.096-3.042-4.619-6.311-2.205
		c-0.38,0.277-1.508-0.59-2.033-0.356c-1.885,0.839-4.379,1.472-5.338,3.001c-2.731,4.36-6.685,5.531-11.014,2.818
		c-1.483-0.928-3.361-1.448-5.118-1.666c-2.965-0.365-5.975-0.368-8.968-0.458c-0.742-0.022-1.604,0-2.22,0.342
		c-4.464,2.482-8.646,1.673-13.39,0.213c-3.81-1.174-8.288-0.245-12.466-0.141c-5.778,0.15-11.556,0.385-17.331,0.631
		c-0.854,0.035-1.984,0.042-2.497,0.553c-2.96,2.954-5.511,6.379-8.742,8.97c-1.633,1.311-4.567,2.004-6.63,1.581
		c-5.628-1.149-16,2.985-18.729,8.007c-1.961,3.611-4.049,7.156-5.853,10.332c-0.421-0.493-1.212-1.423-2.004-2.353
		c-0.436,1.094-1.344,2.249-1.211,3.269c0.301,2.305-0.807,2.929-2.69,3.456c-1.609,0.452-3.09,1.363-3.862,1.72
		c-2.333-1.104-4.074-1.752-5.621-2.71c-1.787-1.107-3.351-2.572-5.112-3.729c-1.389-0.911-2.942-1.57-4.403-2.374
		c-1.374-0.756-3.172-1.239-3.994-2.398c-1.735-2.453-3.032-5.232-4.364-7.947c-1.351-2.756-2.528-5.598-3.805-8.454
		c1.062-0.108,1.932-0.195,2.802-0.283c-0.371-0.731-0.634-1.549-1.139-2.172c-0.616-0.76-1.479-1.97-2.159-1.923
		c-3.748,0.27-3.16-3.055-3.866-4.877c-0.363-0.937,1.194-2.615,2.133-4.444c-5.247-15.298-21.247-23.833-39.336-20.007
		c-0.422-3.171-0.717-6.349-1.299-9.474c-0.54-2.913-1.404-5.764-2.082-8.652c-0.175-0.75-0.518-1.723-0.213-2.28
		c2.083-3.805,4.267-7.557,6.525-11.26c1.185-1.94,2.911-3.604,3.819-5.648c1.556-3.506,5.791-6.147,9.541-5.486
		c1.124-2.812,2.244-5.612,3.396-8.493c0.093,0.064-0.135-0.222-0.303-0.189c-5.484,1.066-6.845,0.295-9.459-5.124
		c-1.165-2.412-3.074-4.614-3.616-7.134c-0.436-2.032,0.606-4.414,1.134-6.607c0.196-0.82,1.252-1.633,1.127-2.303
		c-1.127-6.051,3.068-8.146,7.354-10.236c0.583-0.285,1.443-0.551,1.62-1.03c1.194-3.22,2.515-6.444,3.141-9.789
		c0.162-0.871-1.847-2.425-3.138-3.194c-0.848-0.505-2.768,0.289-3.22-0.282c-1.515-1.913-2.694-4.123-3.786-6.327
		c-0.762-1.539-1.077-3.29-1.755-4.877c-0.95-2.223-1.772-4.288,2.183-4.982c-3.61-4.098-7.035-7.986-10.687-12.13
		c6.524,0,12.066-0.124,17.599,0.048c3.075,0.096,4.425-1.204,5.199-4.083c0.718-2.668,2.191-5.124,3.188-7.729
		c1.933-5.062,1.434-6.692-2.959-10.513c-1.806-1.57-1.213-4.866,1.062-6.175c2.646-1.523,5.254-3.109,8.223-4.873
		c-2.202-2.938-3.056-5.26-1.283-8.735c1.284-2.516,0.456-6.309,0.023-9.455c-0.613-4.45,1.222-9.388-2.478-13.295
		c-0.488-0.519-0.567-1.426-0.976-2.528c4.241,0.466,5.463-2.033,6.833-5.452c0.908-2.266,3.824-4.31,6.298-5.244
		c5.514-2.085,9.348-5.703,12.196-10.645c0.194-0.34,0.582-0.618,0.651-0.97c0.371-1.863,3.984-2.629,1.458-5.584
		c-2.519-2.944-5.111-4.804-9.108-3.823c-0.618,0.152-1.26,0.206-2.122,0.342c0-4.76,0-9.351,0-14.151
		c-6.584-0.42-12.388-0.781-18.19-1.177c-0.499-0.035-1.106-0.17-1.456-0.487c-2.839-2.586-3.741-2.021-4.339,1.823
		c-0.578,3.714-9.2,5.125-12,2.269c-1.438,0.629-2.892,1.264-4.533,1.981c-0.003-4.494-2.887-5.483-9.586-3.637
		c-0.243-0.767-0.486-1.537-0.79-2.495c-1.612,1.271-3.017,2.612-4.642,3.586c-1.452,0.872-3.148,1.34-4.679,1.961
		c-1.011-2.069-1.739-3.562-2.877-5.894c1.188-1.3,3.089-3.119,4.61-5.216c0.409-0.564-0.055-2.182-0.623-2.931
		c-0.699-0.921-1.931-1.438-2.919-2.119c-4.301,1.009-9.084,1.443-13.231,3.3C136.584,126.971,133.143,130.24,129.115,133.092z"/>
	<path fill-rule="evenodd" clip-rule="evenodd" fill="#EAEAEA" d="M588.528,228.802c-2.237,1.51-3.857,2.604-5.476,3.696
		c0.101,0.323,0.201,0.647,0.302,0.971c1.181-0.302,2.363-0.605,4.548-1.164c-1.128,1.639-1.887,2.742-2.819,4.1
		c1.493,3.858,4.693,4.303,8.453,0.627c5.925,2.578,5.743,2.476,2.579,8.185c-1.869,3.371-2.609,7.404-4.66,10.627
		c-2.088,3.278-5.162,5.929-8.265,9.362c-2.399-4.443-5.541-5.856-10.014-5.294c-0.905,0.114-3.312-3.515-3.162-5.26
		c0.19-2.241-0.497-3.627-2.063-3.729c-1.517-0.098-3.251,1.022-4.641,1.971c-0.711,0.486-0.875,1.77-1.392,2.928
		c-2.884-2.054-5.649-4.022-8.495-6.048C564.713,242.268,572.709,229.872,588.528,228.802z"/>
	<path fill-rule="evenodd" clip-rule="evenodd" fill="#EAEAEA" d="M609.647,228.762c-0.1-0.574-0.168-0.934-0.224-1.295
		c-0.24-1.577-1.156-4.154-0.585-4.541c1.569-1.064,3.755-1.244,5.71-1.713c1.468-0.353,2.954-0.621,4.436-0.908
		c1.742-0.335,7.354,2.941,8.224,4.785c0.493,1.043,1.273,2.045,1.422,3.134c0.191,1.411,0.276,3.119-0.378,4.24
		c-0.318,0.539-2.447,0.125-3.728-0.054c-0.595-0.084-1.109-0.661-1.685-0.972C617.663,228.638,617.661,228.641,609.647,228.762z"/>
	<path fill-rule="evenodd" clip-rule="evenodd" fill="#EAEAEA" d="M518.681,289.266c-1.009-0.333-2.225-0.699-3.414-1.135
		c-1.039-0.38-2.951-0.936-2.917-1.246c0.158-1.485,0.815-2.929,1.369-4.357c0.157-0.401,0.766-0.671,0.832-1.06
		c0.885-5.244,5.807-5.082,9.25-6.602c1.934-0.854,4.499,2.942,3.277,4.792c-1.376,2.08-3.186,3.878-4.843,5.768
		C521.154,286.657,520.01,287.834,518.681,289.266z"/>
	<path fill-rule="evenodd" clip-rule="evenodd" fill="#EAEAEA" d="M526.717,297.792c-0.661,0.242-1.491,0.806-2.312,0.795
		c-1.72-0.021-3.436-0.345-5.896-0.631c0.32-1.071,0.839-2.804,1.344-4.499C522.445,295.094,524.199,296.202,526.717,297.792z"/>
</g>
<g id="barcelone">
	<g id="barcelone_1_">
		<g>
			<g>
				<g>
					<g>
						<path fill="#184079" d="M532.748,124.302c-5.597,0-10.135,4.538-10.135,10.137c0,0.428,0.031,0.844,0.086,1.26
							c0.866,7.915,9.391,17.041,9.391,17.041c0.152,0.171,0.298,0.274,0.439,0.352l0.007,0.005l0.284,0.089l0.282-0.089
							l0.007-0.005c0.142-0.076,0.288-0.188,0.439-0.352c0,0,8.401-9.141,9.248-17.06c0.051-0.406,0.086-0.82,0.086-1.243
							C542.881,128.84,538.346,124.302,532.748,124.302z M532.748,140.959c-3.594,0-6.52-2.926-6.52-6.521
							c0-3.597,2.926-6.521,6.52-6.521c3.595,0,6.517,2.925,6.517,6.521C539.264,138.033,536.342,140.959,532.748,140.959z"/>
					</g>
				</g>
			</g>
		</g>
	</g>
</g>
<g id="madrid">
	<g id="madrid_1_">
		<g>
			<g>
				<g>
					<g>
						<path fill="#184079" d="M339.312,189.611c-5.597,0-10.136,4.539-10.136,10.138c0,0.428,0.033,0.844,0.085,1.259
							c0.869,7.915,9.394,17.042,9.394,17.042c0.15,0.171,0.298,0.273,0.438,0.352l0.009,0.003l0.282,0.091l0.283-0.091l0.009-0.003
							c0.14-0.075,0.286-0.188,0.439-0.352c0,0,8.399-9.141,9.247-17.06c0.051-0.407,0.084-0.821,0.084-1.244
							C349.445,194.15,344.91,189.611,339.312,189.611z M339.312,206.268c-3.595,0-6.521-2.924-6.521-6.519
							c0-3.597,2.926-6.521,6.521-6.521s6.517,2.925,6.517,6.521C345.828,203.344,342.906,206.268,339.312,206.268z"/>
					</g>
				</g>
			</g>
		</g>
	</g>
</g>
<g id="salobrena">
	<g id="salobrena_1_">
		<g>
			<g>
				<g>
					<g>
						<path fill="#184079" d="M340.504,357.306c-5.597,0-10.136,4.538-10.136,10.138c0,0.427,0.032,0.844,0.085,1.258
							c0.868,7.916,9.393,17.043,9.393,17.043c0.151,0.17,0.298,0.273,0.439,0.351l0.007,0.005l0.283,0.09l0.283-0.09l0.008-0.005
							c0.141-0.075,0.287-0.188,0.44-0.351c0,0,8.399-9.14,9.246-17.061c0.052-0.407,0.085-0.82,0.085-1.243
							C350.637,361.844,346.102,357.306,340.504,357.306z M340.504,373.962c-3.595,0-6.521-2.925-6.521-6.519
							c0-3.598,2.926-6.521,6.521-6.521s6.517,2.924,6.517,6.521C347.02,371.037,344.098,373.962,340.504,373.962z"/>
					</g>
				</g>
			</g>
		</g>
	</g>
</g>
<g id="hotel-salobrena">
	<rect x="284.632" y="396.881" opacity="0.9" fill="#184079" width="111.742" height="107.226"/>
	<rect x="293.965" y="408.957" fill="none" width="93.077" height="80.162"/>
	<text transform="matrix(1 0 0 1 306.207 415.3018)"><tspan x="0" y="0" fill="#FFFFFF" font-family="'Montserrat-Regular'" font-size="8.5506">BEST WESTERN </tspan><tspan x="12.65" y="10.261" fill="#FFFFFF" font-family="'Montserrat-Regular'" font-size="8.5506">Salobrena</tspan><tspan x="-11.646" y="30.782" fill="#FFFFFF" font-family="'Montserrat-Regular'" font-size="8.5506">Ctra. Malaga-Almeria </tspan><tspan x="3.421" y="41.043" fill="#FFFFFF" font-family="'Montserrat-Regular'" font-size="8.5506">KM 323, 18680</tspan><tspan x="-8.264" y="51.304" fill="#FFFFFF" font-family="'Montserrat-Regular'" font-size="8.5506">Salobrena, Espagne</tspan><tspan x="3.921" y="71.825" fill="#FFFFFF" font-family="'Montserrat-Regular'" font-size="8.5506">+34 958610261</tspan></text>
</g>
<g id="hotel-madrid">
	<rect x="282.765" y="227.109" opacity="0.9" fill="#184079" width="111.743" height="107.225"/>
	<rect x="292.099" y="239.184" fill="none" width="93.076" height="80.162"/>
	<text transform="matrix(1 0 0 1 304.3408 245.5283)"><tspan x="0" y="0" fill="#FFFFFF" font-family="'Montserrat-Regular'" font-size="8.5506">BEST WESTERN </tspan><tspan x="-8.319" y="10.261" fill="#FFFFFF" font-family="'Montserrat-Regular'" font-size="8.5506">Los Condes, Madrid</tspan><tspan x="3.51" y="30.782" fill="#FFFFFF" font-family="'Montserrat-Regular'" font-size="8.5506">Los Libreros 7, </tspan><tspan x="1.83" y="41.043" fill="#FFFFFF" font-family="'Montserrat-Regular'" font-size="8.5506">28004, Madrid,</tspan><tspan x="15.754" y="51.304" fill="#FFFFFF" font-family="'Montserrat-Regular'" font-size="8.5506">Espagne</tspan><tspan x="5.011" y="71.825" fill="#FFFFFF" font-family="'Montserrat-Regular'" font-size="8.5506">+34 915215455</tspan></text>
</g>
<g id="hotel-barcelone">
	<rect x="414.248" y="164.882" opacity="0.9" fill="#184079" width="111.742" height="107.226"/>
	<rect x="423.15" y="173.536" fill="none" width="93.078" height="89.174"/>
	<text transform="matrix(1 0 0 1 435.3936 179.8809)"><tspan x="0" y="0" fill="#FFFFFF" font-family="'Montserrat-Regular'" font-size="8.5506">BEST WESTERN </tspan><tspan x="3.681" y="10.261" fill="#FFFFFF" font-family="'Montserrat-Regular'" font-size="8.5506">Mediterraneo, </tspan><tspan x="12.735" y="20.521" fill="#FFFFFF" font-family="'Montserrat-Regular'" font-size="8.5506">Barcelona</tspan><tspan x="-0.12" y="41.043" fill="#FFFFFF" font-family="'Montserrat-Regular'" font-size="8.5506">Passeig Maritim</tspan><tspan x="10.372" y="51.304" fill="#FFFFFF" font-family="'Montserrat-Regular'" font-size="8.5506">294  08860</tspan><tspan x="-8.179" y="61.564" fill="#FFFFFF" font-family="'Montserrat-Regular'" font-size="8.5506">Barcelona, Espagne</tspan><tspan x="5.011" y="82.086" fill="#FFFFFF" font-family="'Montserrat-Regular'" font-size="8.5506">+34 915215455</tspan></text>
	<rect x="538.154" y="164.882" opacity="0.9" fill="#184079" width="121.742" height="107.226"/>
	<rect x="547.607" y="175.536" fill="none" width="102.836" height="83.464"/>
	<text transform="matrix(1 0 0 1 564.7295 181.8809)"><tspan x="0" y="0" fill="#FFFFFF" font-family="'Montserrat-Regular'" font-size="8.5506">BEST WESTERN </tspan><tspan x="14.019" y="10.261" fill="#FFFFFF" font-family="'Montserrat-Regular'" font-size="8.5506">PREMIER </tspan><tspan x="-16.733" y="20.521" fill="#FFFFFF" font-family="'Montserrat-Regular'" font-size="8.5506">Hotel Dante,  Barcelona</tspan><tspan x="-8.661" y="41.043" fill="#FFFFFF" font-family="'Montserrat-Regular'" font-size="8.5506">Mallorca 181, 08036, </tspan><tspan x="-8.179" y="51.304" fill="#FFFFFF" font-family="'Montserrat-Regular'" font-size="8.5506">Barcelona, Espagne</tspan><tspan x="5.011" y="71.825" fill="#FFFFFF" font-family="'Montserrat-Regular'" font-size="8.5506">+34 915215455</tspan></text>
	<rect x="476.683" y="280.494" opacity="0.9" fill="#184079" width="121.419" height="107.225"/>
	<rect x="485.974" y="292.148" fill="none" width="102.837" height="82.6"/>
	<text transform="matrix(1 0 0 1 503.0957 298.4932)"><tspan x="0" y="0" fill="#FFFFFF" font-family="'Montserrat-Regular'" font-size="8.5506">BEST WESTERN </tspan><tspan x="-13.107" y="10.261" fill="#FFFFFF" font-family="'Montserrat-Regular'" font-size="8.5506">Hotel Alfa Aeropuerto</tspan><tspan x="-9.537" y="30.782" fill="#FFFFFF" font-family="'Montserrat-Regular'" font-size="8.5506">Zona Franca Calle K, </tspan><tspan x="-4.826" y="41.043" fill="#FFFFFF" font-family="'Montserrat-Regular'" font-size="8.5506">08040, Barcelona, </tspan><tspan x="15.755" y="51.304" fill="#FFFFFF" font-family="'Montserrat-Regular'" font-size="8.5506">Espagne</tspan><tspan x="2.98" y="71.825" fill="#FFFFFF" font-family="'Montserrat-Regular'" font-size="8.5506">+34 933362564</tspan></text>
</g>
</svg>
