<?xml version="1.0" encoding="utf-8"?>
<!-- Generator: Adobe Illustrator 16.0.0, SVG Export Plug-In . SVG Version: 6.00 Build 0)  -->
<!DOCTYPE svg PUBLIC "-//W3C//DTD SVG 1.1//EN" "http://www.w3.org/Graphics/SVG/1.1/DTD/svg11.dtd">
<svg version="1.1" id="Layer_1" xmlns="http://www.w3.org/2000/svg" xmlns:xlink="http://www.w3.org/1999/xlink" x="0px" y="0px"
	 width="1349.917px" height="1081.666px" viewBox="0 0 1349.917 1081.666" enable-background="new 0 0 1349.917 1081.666"
	 xml:space="preserve">
<path fill-rule="evenodd" clip-rule="evenodd" fill="#EAEAEA" d="M94.054,265.992c-4.289-20.021,0.13-35.738,18.05-46.237
	c-4.716,0.93-9.434,1.86-14.151,2.79c-0.698-0.892-1.397-1.783-2.096-2.676c5.067-4.935,10.133-9.87,15.2-14.804
	c-10.278,4.711-13.29-4.282-19.025-10.274c3.77-1.784,7.254-3.434,10.698-5.065c-1.438-1.464-2.875-2.926-4.313-4.389
	c1.493-0.897,3.235-1.547,4.417-2.749c1.59-1.616,2.748-3.656,4.091-5.514c-1.739,0.48-3.597,1.62-5.197,1.332
	c-8.967-1.616-9.144,10.166-16.517,10.788c-1.49-2.657-2.916-5.201-4.715-8.41c3.525-6.612,7.414-13.902,11.968-22.442
	c-3.636,1.16-7.306,2.332-12.486,3.985c-0.909-4.8-1.653-10.392-3.14-15.779c-0.62-2.244-2.46-4.87-4.444-5.755
	c-1.258-0.562-3.806,1.766-7.491,3.697c2.932-9.677-0.733-20.156,9.036-27.146c0.632-0.452,0.411-1.959,0.971-2.677
	c2.02-2.59,4.26-7.224,6.316-7.171c7.462,0.194,13.14,0.479,15.304-9.205c0.684-3.057,8.049-4.62,12.479-6.932
	c3.567,5.865,8.764,8.307,15.969,5.348c5.462-2.244,10.916-4.6,16.563-6.257c2.318-0.681,5.136,0.341,8.271,0.64
	c2.492-8.308,6.743-1.617,12.573,2.932c-2.506-9.368-16.64-13.528-7.056-23.543c5.128-3.107,10.839-6.424,16.4-9.977
	c5.81-3.712,11.413-7.748,17.223-11.461c4.891-3.126,5.254-2.855,7.281,4.784c4.862-2.417,9.553-4.75,14.953-7.434
	c1.785,2.963,3.929,6.523,6.072,10.082c6.4-4.524,16.187-2.172,21.025,7.226c6.865,13.334,18.849,11.605,30.124,12.521
	c11.37,0.923,22.775,1.479,34.175,1.952c3.572,0.147,7.176-0.701,10.77-0.741c12.823-0.144,25.658,0.131,38.465-0.374
	c3.119-0.124,6.547-2.114,9.122-4.146c4.423-3.49,7.902-3.855,10.852,1.384c3.356,5.963,8.416,7.822,15.124,7.891
	c11.418,0.116,22.754-0.215,32.612,8.417c3.667,3.211,11.111,2.055,16.812,3.014c5.426,0.914,11.198,1.093,16.166,3.16
	c14.92,6.21,30.627,6.407,46.104,5.733c9.465-0.412,18.801-4.404,28.135-7.007c5.475-1.525,10.565-5.743,16.578-0.766
	c1.018,0.841,4.626-0.433,6.378-1.667c8.798-6.191,15.186,0.736,22.225,3.828c2.214,0.973,3.906,3.23,6.147,4.029
	c8.897,3.173,17.918,6.002,26.817,8.935c6.364-11.799,16.188-14.673,28.119-9.142c9.73,4.511,19.425,9.587,29.69,12.344
	c14.248,3.825,28.614,1.497,41.303-6.099c5.042-3.018,7.931-3.715,11.345,1.218c4.771,6.89,11.35,8.542,19.395,7.036
	c10.41-1.95,15.193,4.219,11.38,14.235c-0.759,1.997-1.489,4.069-2.638,5.843c-3.862,5.966-1.316,8.162,4.933,8.812
	c1.363-2.94,2.639-5.7,4.192-9.055c6.827,10.2,34.521,18.835,46.887,16.085c6.031,6.204,10.707,13.549,17.396,17.037
	c4.76,2.482,12.611,0.966,18.398-0.898c8.814-2.839,18.71-0.896,22.561,7.472c3.935,8.552,9.657,8.611,16.452,4.978
	c6.188-3.31,11.999-4.353,18.136-0.24c0.983,0.659,2.585,1.528,3.378,1.164c10.499-4.807,21.868-0.01,33.038-3.337
	c-0.407-1.53-1.056-3.134-1.229-4.789c-0.336-3.191-0.4-6.411-0.577-9.62c3.007,0.039,6.088-0.341,9.004,0.197
	c8.254,1.52,17.365,1.734,24.39,5.624c7.342,4.064,13.774,6.359,22.267,6.395c3.616,0.017,7.944,7.073,10.521,11.723
	c1.576,2.849,0.406,7.2,0.523,10.875c0.288,9.079,4.837,12.302,12.428,7.385c9.312-6.035,18.343-5.316,27.905-2.028
	c1.317,0.454,3.098,1.097,3.596,2.155c4.521,9.613,10.632,8.457,17.838,3.174c6.684-4.9,13.611-3.361,20.863-0.759
	c7.594,2.725,15.54,4.461,20.258,5.775c15.111-13.005,27.453-22.291,45.752-12.432c0.997,4.41,1.208,4.593,14.317,10.883
	c-0.948,8.37-4.143,13.625-13.922,8.705c-2.63,6.786-2.904,11.435,3.676,16.169c9.568,6.886,8.354,24.88-0.961,32.167
	c-3.509,2.745-5.862,7.06-9.517,9.504c-12.958,8.669-26.524,16.438-39.334,25.311c-12.92,8.951-28.857,14.947-33.71,32.601
	c-0.601,2.191-4.483,4.157-7.219,4.973c-14.841,4.431-30.05,7.761-44.639,12.871c-10.902,3.818-21.056,9.767-31.562,14.724
	c-0.721,0.34-1.646,0.524-2.426,0.417c-8.897-1.223-14.977,3.25-20.045,9.808c-5.71,7.385-11.408,14.779-16.177,20.959
	c4.873,3.585,9.331,6.866,15.115,11.12c-8.204,5.794-12.646,15.212-23.938,15.995c-2.687,0.187-6.234,2.356-7.605,4.668
	c-7.401,12.485-13.729,25.629-21.463,37.89c-5.154,8.168-12.05,15.237-18.156,22.808c-0.577,0.713-1.176,1.438-1.593,2.245
	c-9.959,19.271-20.101,38.45-29.741,57.879c-4.58,9.229-1.561,18.433,1.644,27.534c2.141,6.089,3.442,12.469,5.262,18.675
	c4.404,15.043,10.095,28.54,27.569,33.479c5.645,1.596,10.001,7.747,16.951,13.463c-9.845,5.837-17.193,10.162-24.497,14.566
	c-1.02,0.616-2.573,1.64-2.569,2.469c0.038,10.597-9.202,8.997-15.132,11.646c-7.736,3.457-16.407,5.758-17.986,16.127
	c-0.134,0.876-1.228,2.157-2.036,2.292c-8.576,1.44-7.972,7.444-7.635,13.898c0.107,2.072-2.012,4.431-3.48,6.377
	c-2.443,3.238-7.081,6.056-7.424,9.395c-0.827,8.03-2.05,15.179-7.408,21.829c-7.504,9.312-2.194,19.853-0.138,29.472
	c1.332,6.229,1.138,8.897-5.459,10.062c-6.901,1.216-12.979,6.878-20.975,2.367c-2.011-1.135-6.314,1.833-9.585,2.859
	c-1.542,0.484-3.369,1.553-4.66,1.126c-13.103-4.361-22.369-0.838-29.044,11.13c-0.643,1.148-2.347,1.679-3.482,2.591
	c-6.02,4.826-12.078,9.611-18.005,14.55c-11.418,9.521-10.436,24.875-17.096,36.608c-3.874,6.829-8.503,13.226-12.803,19.812
	c-1.284,1.965-2.546,3.945-3.911,5.85c-5.75,8.01-11.652,8.1-17.475,0.428c-3.719-4.9-7.116-10.802-14.763-5.158
	c-0.886,0.652-3.524-1.38-4.756-0.833c-4.406,1.964-10.241,3.444-12.483,7.02c-6.389,10.199-15.636,12.937-25.763,6.592
	c-3.466-2.171-7.859-3.387-11.97-3.896c-6.933-0.854-13.976-0.86-20.978-1.072c-1.734-0.052-3.748,0-5.188,0.8
	c-10.445,5.809-20.223,3.912-31.321,0.498c-8.911-2.745-19.384-0.574-29.156-0.327c-13.517,0.349-27.03,0.898-40.538,1.473
	c-1.998,0.084-4.644,0.098-5.842,1.295c-6.921,6.907-12.89,14.92-20.445,20.979c-3.822,3.066-10.686,4.686-15.51,3.7
	c-13.162-2.688-37.424,6.981-43.806,18.727c-4.589,8.447-9.47,16.737-13.691,24.167c-0.982-1.153-2.834-3.327-4.688-5.501
	c-1.018,2.558-3.143,5.259-2.832,7.643c0.703,5.392-1.886,6.851-6.293,8.085c-3.764,1.056-7.226,3.189-9.035,4.021
	c-5.453-2.585-9.526-4.098-13.146-6.339c-4.18-2.59-7.837-6.016-11.958-8.72c-3.25-2.131-6.88-3.673-10.3-5.553
	c-3.214-1.769-7.419-2.897-9.341-5.61c-4.059-5.737-7.093-12.237-10.209-18.59c-3.16-6.445-5.913-13.092-8.9-19.773
	c2.488-0.253,4.521-0.457,6.553-0.664c-0.865-1.709-1.481-3.621-2.66-5.077c-1.442-1.779-3.46-4.608-5.051-4.497
	c-8.769,0.629-7.394-7.146-9.045-11.41c-0.847-2.188,2.793-6.113,4.992-10.396c-12.275-35.782-49.697-55.743-92.009-46.792
	c-0.987-7.42-1.679-14.853-3.038-22.163c-1.265-6.812-3.286-13.48-4.869-20.235c-0.411-1.755-1.212-4.029-0.499-5.335
	c4.871-8.897,9.979-17.675,15.263-26.337c2.769-4.538,6.809-8.43,8.931-13.212c3.641-8.201,13.548-14.376,22.318-12.832
	c2.63-6.578,5.25-13.127,7.944-19.864c0.219,0.148-0.316-0.519-0.708-0.443c-12.827,2.493-16.008,0.687-22.125-11.986
	c-2.724-5.643-7.192-10.792-8.457-16.684c-1.021-4.756,1.419-10.326,2.651-15.458c0.46-1.919,2.928-3.819,2.637-5.384
	c-2.634-14.154,7.176-19.057,17.199-23.945c1.364-0.666,3.375-1.287,3.792-2.409c2.791-7.532,5.88-15.072,7.343-22.897
	c0.381-2.037-4.316-5.671-7.337-7.47c-1.982-1.181-6.475,0.674-7.531-0.662c-3.542-4.474-6.303-9.645-8.856-14.799
	c-1.781-3.597-2.519-7.694-4.105-11.405c-2.223-5.203-4.145-10.033,5.104-11.658c-8.441-9.582-16.455-18.676-24.995-28.371
	c15.261,0,28.223-0.289,41.163,0.113c7.196,0.224,10.351-2.815,12.163-9.551c1.678-6.241,5.125-11.986,7.453-18.079
	c4.522-11.839,3.356-15.655-6.919-24.589c-4.225-3.673-2.834-11.381,2.485-14.443c6.188-3.562,12.29-7.274,19.231-11.398
	c-5.149-6.872-7.146-12.301-2.999-20.431c3.003-5.886,1.069-14.755,0.054-22.116c-1.434-10.41,2.858-21.958-5.793-31.099
	c-1.146-1.211-1.33-3.333-2.285-5.912c9.923,1.088,12.78-4.757,15.984-12.755c2.122-5.298,8.945-10.078,14.73-12.266
	c12.897-4.875,21.863-13.338,28.527-24.898c0.457-0.792,1.362-1.443,1.525-2.265c0.866-4.36,9.319-6.15,3.408-13.061
	c-5.892-6.888-11.955-11.236-21.305-8.942c-1.445,0.354-2.946,0.481-4.962,0.799c0-11.135,0-21.871,0-33.101
	c-15.397-0.982-28.974-1.827-42.546-2.754c-1.17-0.08-2.59-0.398-3.406-1.14c-6.643-6.046-8.751-4.727-10.149,4.269
	c-1.351,8.686-21.518,11.985-28.067,5.307c-3.363,1.469-6.765,2.955-10.604,4.633c-0.005-10.512-6.751-12.827-22.423-8.507
	c-0.566-1.792-1.137-3.596-1.845-5.834c-3.771,2.97-7.057,6.106-10.857,8.386c-3.398,2.039-7.364,3.131-10.944,4.587
	c-2.363-4.842-4.066-8.329-6.729-13.787c2.779-3.039,7.226-7.295,10.785-12.199c0.958-1.32-0.127-5.104-1.459-6.855
	c-1.636-2.153-4.515-3.361-6.825-4.957c-10.059,2.36-21.25,3.376-30.951,7.718C111.523,251.676,103.473,259.323,94.054,265.992z"/>
<path fill-rule="evenodd" clip-rule="evenodd" fill="#EAEAEA" d="M1168.624,489.861c-5.231,3.532-9.019,6.087-12.805,8.644
	c0.234,0.757,0.47,1.514,0.705,2.271c2.763-0.707,5.526-1.414,10.638-2.721c-2.637,3.832-4.413,6.415-6.597,9.588
	c3.493,9.025,10.979,10.063,19.773,1.464c13.859,6.031,13.433,5.793,6.032,19.146c-4.369,7.885-6.102,17.317-10.9,24.855
	c-4.883,7.669-12.073,13.867-19.329,21.898c-5.611-10.393-12.962-13.699-23.421-12.382c-2.117,0.267-7.748-8.221-7.399-12.3
	c0.448-5.245-1.162-8.486-4.825-8.722c-3.551-0.229-7.605,2.391-10.854,4.611c-1.662,1.135-2.047,4.138-3.255,6.845
	c-6.746-4.802-13.214-9.408-19.869-14.146C1112.923,521.356,1131.627,492.364,1168.624,489.861z"/>
<path fill-rule="evenodd" clip-rule="evenodd" fill="#EAEAEA" d="M1223.023,489.766c-0.232-1.342-0.392-2.183-0.521-3.028
	c-0.562-3.689-2.703-9.718-1.369-10.622c3.671-2.491,8.78-2.91,13.356-4.007c3.43-0.823,6.909-1.453,10.375-2.122
	c4.073-0.786,17.199,6.879,19.235,11.19c1.153,2.44,2.977,4.784,3.324,7.33c0.448,3.3,0.646,7.296-0.885,9.917
	c-0.742,1.264-5.722,0.294-8.718-0.125c-1.392-0.194-2.595-1.546-3.94-2.273C1241.773,489.477,1241.77,489.484,1223.023,489.766z"/>
<path fill-rule="evenodd" clip-rule="evenodd" fill="#EAEAEA" d="M1005.25,631.286c-2.359-0.777-5.202-1.637-7.984-2.655
	c-2.43-0.889-6.9-2.187-6.823-2.913c0.372-3.476,1.906-6.851,3.204-10.191c0.365-0.941,1.791-1.571,1.945-2.479
	c2.07-12.267,13.58-11.887,21.636-15.442c4.522-1.997,10.521,6.883,7.665,11.208c-3.217,4.867-7.45,9.071-11.327,13.491
	C1011.038,625.187,1008.36,627.937,1005.25,631.286z"/>
<path fill-rule="evenodd" clip-rule="evenodd" fill="#EAEAEA" d="M1024.047,651.229c-1.546,0.566-3.485,1.887-5.406,1.86
	c-4.021-0.05-8.035-0.807-13.788-1.476c0.749-2.507,1.96-6.559,3.144-10.523C1014.058,644.918,1018.16,647.509,1024.047,651.229z"/>
<g id="england">
	<g>
		<g>
			<g>
				<g>
					<path fill="#184079" d="M1038.154,245.433c-13.09,0-23.705,10.616-23.705,23.71c0,1.001,0.076,1.975,0.199,2.946
						c2.03,18.514,21.969,39.859,21.969,39.859c0.354,0.4,0.696,0.642,1.025,0.822l0.02,0.011l0.661,0.209l0.661-0.209l0.019-0.011
						c0.329-0.177,0.673-0.438,1.028-0.822c0,0,19.648-21.378,21.63-39.903c0.119-0.952,0.198-1.918,0.198-2.908
						C1061.856,256.049,1051.249,245.433,1038.154,245.433z M1038.154,284.393c-8.406,0-15.25-6.84-15.25-15.249
						c0-8.412,6.844-15.252,15.25-15.252c8.41,0,15.244,6.84,15.244,15.252C1053.396,277.553,1046.562,284.393,1038.154,284.393z"/>
				</g>
			</g>
		</g>
	</g>
</g>
<g id="england_1_">
	<g>
		<g>
			<g>
				<g>
					<path fill="#184079" d="M588.492,790.432c-13.09,0-23.705,10.616-23.705,23.711c0,1.001,0.076,1.975,0.199,2.946
						c2.031,18.514,21.969,39.859,21.969,39.859c0.354,0.4,0.696,0.643,1.026,0.822l0.019,0.011l0.661,0.209l0.661-0.209l0.02-0.011
						c0.329-0.177,0.672-0.438,1.028-0.822c0,0,19.648-21.378,21.629-39.903c0.119-0.952,0.198-1.918,0.198-2.908
						C612.194,801.048,601.587,790.432,588.492,790.432z M588.492,829.392c-8.406,0-15.25-6.84-15.25-15.249
						c0-8.413,6.844-15.252,15.25-15.252c8.41,0,15.244,6.839,15.244,15.252C603.733,822.552,596.899,829.392,588.492,829.392z"/>
				</g>
			</g>
		</g>
	</g>
</g>
<g id="england_2_">
	<g>
		<g>
			<g>
				<g>
					<path fill="#184079" d="M585.707,398.193c-13.091,0-23.705,10.616-23.705,23.71c0,1.001,0.076,1.975,0.198,2.947
						c2.031,18.514,21.969,39.86,21.969,39.86c0.354,0.4,0.697,0.642,1.026,0.822l0.019,0.011l0.661,0.209l0.661-0.209l0.02-0.011
						c0.329-0.177,0.672-0.438,1.028-0.822c0,0,19.648-21.379,21.629-39.904c0.12-0.952,0.198-1.918,0.198-2.908
						C609.409,408.81,598.801,398.193,585.707,398.193z M585.707,437.153c-8.407,0-15.251-6.84-15.251-15.25
						c0-8.412,6.844-15.252,15.251-15.252c8.409,0,15.243,6.84,15.243,15.252C600.947,430.313,594.113,437.153,585.707,437.153z"/>
				</g>
			</g>
		</g>
	</g>
</g>
</svg>
